<?xml version="1.0" standalone="no"?>
<svg xmlns:xlink="http://www.w3.org/1999/xlink" id="wave" style="transform:rotate(0deg); transition: 0.3s" viewBox="0 0 1440 220" version="1.1" xmlns="http://www.w3.org/2000/svg"><defs><linearGradient id="sw-gradient-0" x1="0" x2="0" y1="1" y2="0"><stop stop-color="rgba(0, 225.722, 141.614, 1)" offset="0%"/><stop stop-color="rgba(11, 64.897, 255, 1)" offset="100%"/></linearGradient></defs><path style="transform:translate(0, 0px); opacity:1" fill="url(#sw-gradient-0)" d="M0,0L24,3.7C48,7,96,15,144,22C192,29,240,37,288,58.7C336,81,384,117,432,117.3C480,117,528,81,576,84.3C624,88,672,132,720,135.7C768,139,816,103,864,77C912,51,960,37,1008,58.7C1056,81,1104,139,1152,150.3C1200,161,1248,125,1296,110C1344,95,1392,103,1440,110C1488,117,1536,125,1584,135.7C1632,147,1680,161,1728,172.3C1776,183,1824,191,1872,187C1920,183,1968,169,2016,143C2064,117,2112,81,2160,88C2208,95,2256,147,2304,172.3C2352,198,2400,198,2448,168.7C2496,139,2544,81,2592,77C2640,73,2688,125,2736,124.7C2784,125,2832,73,2880,47.7C2928,22,2976,22,3024,25.7C3072,29,3120,37,3168,33C3216,29,3264,15,3312,14.7C3360,15,3408,29,3432,36.7L3456,44L3456,220L3432,220C3408,220,3360,220,3312,220C3264,220,3216,220,3168,220C3120,220,3072,220,3024,220C2976,220,2928,220,2880,220C2832,220,2784,220,2736,220C2688,220,2640,220,2592,220C2544,220,2496,220,2448,220C2400,220,2352,220,2304,220C2256,220,2208,220,2160,220C2112,220,2064,220,2016,220C1968,220,1920,220,1872,220C1824,220,1776,220,1728,220C1680,220,1632,220,1584,220C1536,220,1488,220,1440,220C1392,220,1344,220,1296,220C1248,220,1200,220,1152,220C1104,220,1056,220,1008,220C960,220,912,220,864,220C816,220,768,220,720,220C672,220,624,220,576,220C528,220,480,220,432,220C384,220,336,220,288,220C240,220,192,220,144,220C96,220,48,220,24,220L0,220Z"/></svg>